<?xml version="1.0" encoding="UTF-8"?>
<svg id="Layer_2" data-name="Layer 2" xmlns="http://www.w3.org/2000/svg" width="666.67" height="621.28" viewBox="0 0 666.67 621.28">
  <defs>
    <style>
      .cls-1 {
        fill: none;
        stroke: #70a0af;
        stroke-linecap: round;
        stroke-linejoin: round;
        stroke-width: 66.67px;
      }
    </style>
  </defs>
  <g id="Layer_1-2" data-name="Layer 1">
    <path class="cls-1" d="m34.28,254.61l239.88,160.55c21.38,14.26,32.08,21.38,43.63,24.15,10.21,2.45,20.86,2.45,31.07,0,11.56-2.77,22.25-9.9,43.63-24.15l239.88-160.55M276.6,56.9l-193.33,121.42c-18.23,11.45-27.35,17.17-33.96,24.91-5.85,6.85-10.25,14.81-12.94,23.41-3.04,9.71-3.04,20.48-3.04,42.01v212.63c0,37.34,0,56.01,7.27,70.27,6.39,12.54,16.59,22.74,29.13,29.13,14.26,7.27,32.93,7.27,70.27,7.27h386.67c37.34,0,56.01,0,70.27-7.27,12.54-6.39,22.74-16.59,29.13-29.13,7.27-14.26,7.27-32.93,7.27-70.27v-212.63c0-21.53,0-32.29-3.04-42.01-2.69-8.6-7.09-16.56-12.94-23.41-6.61-7.74-15.73-13.46-33.96-24.91l-193.33-121.42c-20.58-12.92-30.86-19.38-41.9-21.9-9.76-2.23-19.9-2.23-29.66,0-11.04,2.52-21.32,8.98-41.9,21.9Z"/>
  </g>
</svg>