<?xml version="1.0" encoding="UTF-8"?>
<svg id="Layer_2" data-name="Layer 2" xmlns="http://www.w3.org/2000/svg" width="649.92" height="650.03" viewBox="0 0 649.92 650.03">
  <defs>
    <style>
      .cls-1 {
        fill: #70a0af;
        stroke-width: 0px;
      }
    </style>
  </defs>
  <g id="Layer_1-2" data-name="Layer 1">
    <path class="cls-1" d="m428.26,425.93l18.13,17.22h0l-18.13-17.22Zm15.18-15.98l-18.13-17.22h0l18.13,17.22Zm80.56-11.18l-12.47,21.67h0l12.47-21.67Zm63.68,36.66l-12.47,21.67,12.47-21.67Zm17.94,114.88l18.13,17.22h0s-18.13-17.22-18.13-17.22Zm-47.35,49.85l-18.13-17.22,18.13,17.22Zm-44.16,23.64l2.46,24.88-2.46-24.88Zm-328.7-149.6l18.13-17.22-18.13,17.22ZM49.96,155.88c-.74-13.79-12.52-24.36-26.3-23.62S-.7,144.78.04,158.56l49.93-2.68Zm181.3,62.64l18.13,17.22-18.13-17.22Zm9.56-10.07l18.13,17.22-18.13-17.22Zm5.22-93.67l20.41-14.43-20.41,14.43Zm-42.03-59.45l-20.41,14.43h0l20.41-14.43Zm-121.85-27.25c-9.51,10.01-9.1,25.83.91,35.34,10.01,9.51,25.83,9.1,35.34-.91l-36.25-34.43Zm211.52,332.13l18.13-17.22-18.13,17.22Zm-13.3,225.21c11.69,7.35,27.12,3.83,34.47-7.86,7.35-11.69,3.82-27.12-7.87-34.47l-26.6,42.33Zm148.3,8.2c-13.51-2.83-26.76,5.83-29.59,19.35-2.83,13.51,5.83,26.76,19.35,29.59l10.25-48.94Zm17.72-150.49l15.18-15.98-36.25-34.43-15.18,15.98,36.25,34.43Zm65.14-22.71l63.68,36.66,24.94-43.33-63.68-36.66-24.94,43.33Zm75.97,112.65l-47.35,49.85,36.25,34.43,47.35-49.85-36.25-34.44Zm-383.96-76.11C74.34,320.95,52.67,206.21,49.96,155.88L.04,158.56c3.31,61.64,29.48,187.81,167.25,332.85l36.25-34.43Zm45.84-221.24l9.56-10.07-36.25-34.43-9.56,10.07,36.25,34.43Zm17.07-135.38l-42.03-59.45-40.83,28.87,42.03,59.45,40.83-28.87Zm-35.2,118.16q-18.13-17.22-18.17-17.17s-.03.03-.05.05c-.03.03-.06.07-.1.1-.07.07-.13.14-.2.22-.14.15-.29.32-.44.5-.31.36-.65.77-1.02,1.23-.73.93-1.56,2.06-2.43,3.42-1.74,2.73-3.63,6.31-5.24,10.81-3.26,9.15-5.03,21.27-2.81,36.41,4.36,29.74,23.84,69.73,74.75,123.33l36.25-34.43c-47.59-50.1-59.31-80.96-61.54-96.14-1.07-7.33.02-11.18.45-12.4.24-.68.4-.87.25-.63-.08.12-.23.34-.48.66-.13.16-.28.34-.46.55-.09.1-.19.21-.29.33-.05.06-.11.12-.16.18-.03.03-.06.06-.09.09-.01.02-.04.04-.04.05t-18.17-17.17Zm44.29,158.91c50.76,53.44,89.1,74.45,118.35,79.2,15.01,2.44,27.16.49,36.36-3.14,4.5-1.77,8.06-3.86,10.73-5.75,1.33-.95,2.44-1.84,3.34-2.63.45-.39.84-.76,1.19-1.09.17-.16.33-.32.48-.47.07-.07.15-.15.21-.22.03-.03.07-.07.1-.1.02-.02.04-.04.05-.05t-18.08-17.27q-18.13-17.22-18.08-17.26s.03-.03.05-.05c.03-.03.06-.06.09-.09.06-.06.12-.12.17-.18.11-.11.22-.22.32-.31.2-.19.38-.36.54-.5.32-.28.56-.46.71-.57.31-.22.28-.15-.15.02-.64.25-3.67,1.32-10,.3-13.42-2.18-42.37-14.02-90.11-64.28l-36.25,34.43ZM224.43,40.91C190.64-6.87,123.03-14.94,82.16,28.1l36.25,34.43c17.43-18.35,48.11-16.91,65.19,7.25l40.83-28.87Zm315.72,542.03c-9.3,9.79-19.03,15.04-28.49,15.97l4.91,49.76c24.9-2.46,45.05-15.74,59.83-31.3l-36.25-34.43ZM258.95,225.68c32.25-33.96,34.53-87.1,7.51-125.32l-40.83,28.87c14.07,19.9,11.91,46.38-2.94,62.02l36.25,34.43Zm316.26,231.41c27.36,15.75,32.72,54.49,12.29,76l36.25,34.43c43.5-45.8,30.83-122.43-23.6-153.76l-24.94,43.33Zm-113.64-29.93c12.85-13.53,32.87-16.57,49.96-6.73l24.94-43.33c-36.62-21.08-82.03-15.03-111.15,15.63l36.25,34.43Zm-154.59,115.94c-32.79-20.61-67.69-48.49-103.43-86.12l-36.25,34.43c38.47,40.5,76.58,71.08,113.08,94.02l26.6-42.33Zm204.68,55.81c-18.22,1.8-47.05,2.25-82.99-5.28l-10.25,48.94c41.62,8.71,75.62,8.32,98.15,6.1l-4.91-49.76Z"/>
  </g>
</svg>